<?xml version="1.0" encoding="UTF-8"?>
<svg width="1200pt" height="1200pt" version="1.1" viewBox="0 0 1200 1200" xmlns="http://www.w3.org/2000/svg">
 <g fill="#3eb0ab">
  <path d="m527.06 1056.9c-190.5 0-363-54.375-450-141.94-17.617-15.984-31.852-35.336-41.867-56.914-10.016-21.574-15.605-44.938-16.445-68.711 0-73.875 56.25-135.75 159-179.06 6.1953-2.5781 13.297-1.6562 18.629 2.4219 5.332 4.0742 8.0859 10.688 7.2188 17.344-0.86328 6.6523-5.2148 12.344-11.41 14.922-60.938 25.688-135.94 71.625-135.94 144.38 1.5312 38.051 18.449 73.848 46.875 99.188 79.312 79.5 245.81 131.25 423.94 131.25 255.19 0 470.81-105.38 470.81-230.06 0-47.438-28.875-88.5-85.688-122.44-5.0508-3.6719-7.9414-9.6172-7.7109-15.859 0.23438-6.2383 3.5547-11.957 8.8633-15.242 5.3086-3.2891 11.906-3.7188 17.598-1.1484 68.062 40.5 104.06 93.75 104.06 154.69 0.375 149.62-222.94 267.19-507.94 267.19z"/>
  <path d="m500.81 819.38c-101.81 1.0352-203.12-14.414-300-45.75-6.1133-2.4102-10.523-7.8438-11.613-14.324-1.0938-6.4844 1.2852-13.062 6.2695-17.344 4.9883-4.2852 11.852-5.6406 18.094-3.582 3.1875 1.125 322.88 114 660.56-32.812 4.5977-2.3047 9.9414-2.6211 14.781-0.87109 4.8359 1.7461 8.7422 5.4062 10.805 10.121 2.0586 4.7148 2.0938 10.066 0.089843 14.805-2 4.7383-5.8594 8.4492-10.676 10.258-122.61 52.879-254.79 79.941-388.31 79.5z"/>
  <path d="m214.5 893.25c-2.3164 0.019531-4.6094-0.42578-6.75-1.3125-65.758-24.633-127.01-59.918-181.31-104.44-4.2227-3.0469-6.9922-7.7109-7.6406-12.875-0.64453-5.168 0.88281-10.371 4.2266-14.367 3.3398-3.9922 8.1914-6.418 13.391-6.6914 5.1992-0.27344 10.281 1.625 14.023 5.2461 51.293 41.621 109.06 74.559 171 97.5 4.8008 1.793 8.6602 5.4688 10.68 10.18 2.0195 4.7109 2.0234 10.047 0.007812 14.758-1.3711 3.5547-3.793 6.6055-6.9414 8.75-3.1484 2.1445-6.875 3.2773-10.684 3.25z"/>
  <path d="m735 973.88c-140.58 1.4375-280.8-14.305-417.56-46.875-6.4961-1.6758-11.609-6.6875-13.406-13.152-1.8008-6.4648-0.011719-13.398 4.6875-18.188 4.6992-4.7891 11.598-6.7109 18.094-5.0352 269.06 69.75 573.19 39.188 575.25 38.812 4.9492-0.52344 9.9023 0.9375 13.77 4.0703 3.8711 3.1289 6.3359 7.668 6.8555 12.617 0.52344 4.9492-0.9375 9.9023-4.0703 13.77-3.1289 3.8711-7.668 6.3359-12.617 6.8555-1.3125 0.1875-70.125 7.125-171 7.125z"/>
  <path d="m519.75 962.81c-6.6992 0.30078-13.051-2.9922-16.66-8.6445-3.6094-5.6484-3.9336-12.797-0.84375-18.75s9.1172-9.8047 15.816-10.105c313.88-27.938 485.81-150 487.5-151.12 5.4258-3.9531 12.547-4.7109 18.684-1.9883 6.1367 2.7227 10.352 8.5156 11.062 15.188 0.71094 6.6758-2.1953 13.223-7.6211 17.176-7.3125 5.25-181.31 129.19-506.25 158.06z"/>
  <path d="m161.62 792.75c-3.5391 0.019531-7-1.0234-9.9375-3-78-48.938-82.688-96-82.875-102.19-0.43359-6.6992 2.7344-13.121 8.3203-16.848 5.582-3.7266 12.73-4.1914 18.75-1.2188 6.0195 2.9727 9.9961 8.9297 10.43 15.629 0 1.5 5.625 35.25 65.438 72.938 4.6602 2.8867 7.8203 7.668 8.6562 13.086 0.83203 5.418-0.74609 10.93-4.3242 15.082-3.5742 4.1562-8.7891 6.5391-14.27 6.5195z"/>
  <path d="m249.19 786.19c-6.4766 0.011719-12.504-3.3203-15.938-8.8125-12.242-19.641-20.938-41.285-25.688-63.938-10.379-45.164-2.707-92.598 21.375-132.19 15.801-25.961 41.434-44.426 71.062-51.188 61.688-13.312 125.44 31.125 151.31 105.38 2.1641 4.7891 2.2188 10.266 0.14844 15.098-2.0664 4.832-6.0664 8.5742-11.023 10.312-4.9609 1.7422-10.422 1.3203-15.055-1.1562-4.6328-2.4805-8.0156-6.7891-9.3203-11.879-18.75-55.312-66-90.188-108.38-81.188-19.738 4.5859-36.781 16.961-47.25 34.312-18.906 31.465-24.887 69.031-16.688 104.81 3.8164 18.258 10.797 35.711 20.625 51.562 2.6602 4.2031 3.543 9.2891 2.4531 14.141-1.0898 4.8555-4.0625 9.0742-8.2656 11.734-2.8008 1.8164-6.0391 2.8516-9.375 3z"/>
  <path d="m601.69 810.75c-4.3164-0.035156-8.4883-1.5586-11.812-4.3125-3.8359-3.1211-6.2812-7.6289-6.8086-12.547-0.52734-4.9141 0.91016-9.8398 3.9961-13.703 13.285-16.605 23.043-35.746 28.688-56.25 10.504-35.125 7.0117-72.953-9.75-105.56-9.3398-18.121-25.652-31.66-45.188-37.5-40.125-10.875-86.625 18.75-110.25 69-3.9258 8.0742-7.125 16.484-9.5625 25.125-8.6992 29.871-7.582 61.746 3.1875 90.938 1.3438 3.8047 2.9727 7.5039 4.875 11.062 3.0156 5.9961 2.6016 13.145-1.082 18.75-3.6875 5.6094-10.082 8.8281-16.781 8.4375-6.6992-0.38672-12.684-4.3164-15.699-10.312-2.4609-4.8516-4.5938-9.8633-6.375-15-13.613-36.492-15.125-76.395-4.3125-113.81 3.0195-10.918 6.9062-21.578 11.625-31.875 32.062-68.438 95.25-105.19 153.94-89.438 29.102 8.293 53.637 27.961 68.062 54.562 21.93 41.113 26.777 89.211 13.5 133.88-6.8359 25.836-18.969 49.973-35.625 70.875-3.4219 4.6875-8.8242 7.5273-14.625 7.6875z"/>
  <path d="m710.25 792.75c-3.6758-0.027344-7.2617-1.1367-10.312-3.1875-4.1641-2.75-7.0586-7.0469-8.043-11.941-0.98438-4.8906 0.019531-9.9727 2.793-14.121l62.062-93.75v-86.438c0-6.6992 3.5742-12.887 9.375-16.238 5.8008-3.3477 12.949-3.3477 18.75 0 5.8008 3.3516 9.375 9.5391 9.375 16.238v91.688c-0.027344 3.6758-1.1367 7.2617-3.1875 10.312l-65.25 98.25c-3.2734 5.5234-9.1445 8.9922-15.562 9.1875z"/>
  <path d="m826.69 759.19h-4.5c-4.8203-1.1953-8.9727-4.2578-11.539-8.5117-2.5664-4.2539-3.3398-9.3516-2.1484-14.176l20.25-80.812v-58.125c0-6.6992 3.5742-12.887 9.375-16.238 5.8008-3.3477 12.949-3.3477 18.75 0 5.8008 3.3516 9.375 9.5391 9.375 16.238v59.812c0.19531 1.5547 0.19531 3.1328 0 4.6875l-20.812 83.062c-1.0625 4.125-3.5 7.7656-6.9062 10.32-3.4102 2.5586-7.5859 3.875-11.844 3.7422z"/>
  <path d="m1077.2 660c-4.3828 0.007812-8.625-1.5156-12-4.3125l-64.312-53.25c-7.5195-6.3711-16.703-10.457-26.469-11.789-9.7656-1.3281-19.707 0.16016-28.656 4.2891-27.441 13.219-57.332 20.582-87.773 21.613-30.441 1.0352-60.766-4.2852-89.039-15.613-128.81-48.375-141.94-174.94-141.56-227.06 0.10156-1.6914-0.47266-3.3555-1.5977-4.6211s-2.7109-2.0312-4.4023-2.1289h-8.8125c-25.43-2.8945-49.074-14.484-66.938-32.812l-66.188 12.375c-5.1172 0.98047-10.41-0.21094-14.609-3.2891-4.2031-3.0781-6.9336-7.7656-7.543-12.941-0.60547-5.1719 0.96484-10.363 4.3398-14.332l56.25-65.062v-6c-0.26172-9.2617 0.61719-18.52 2.625-27.562 7.0078-19.504 19.352-36.648 35.629-49.477 16.277-12.832 35.832-20.828 56.434-23.086 28.859-3.1875 57.832 4.9062 80.859 22.59s38.328 43.582 42.703 72.285c0.71094 3.9453 2.5117 7.6172 5.1914 10.598 2.6836 2.9805 6.1445 5.1562 9.9961 6.2773 54.938 14.438 188.62 62.062 252.56 159.19 18.246 26.785 47.434 44.09 79.688 47.25l81.188 9.75c4.9531 0.5625 9.4727 3.0742 12.57 6.9805 3.0977 3.9062 4.5117 8.8828 3.9297 13.832 0 4.875-15.375 122.06-95.062 164.25-2.8086 1.3477-5.8828 2.0508-9 2.0625zm-110.44-107.44c21.172 0.027344 41.664 7.457 57.938 21l54.188 45.188c38.625-27.562 56.25-82.125 61.688-110.62l-61.5-7.5c-43.246-4.4023-82.281-27.84-106.5-63.938-56.25-86.812-181.12-130.31-231.75-145.12-10.809-3.1055-20.492-9.2734-27.879-17.754-7.3828-8.4844-12.156-18.922-13.746-30.059-2.9297-19.184-13.184-36.484-28.602-48.27-15.418-11.781-34.805-17.129-54.086-14.918-13.305 1.5664-25.938 6.7188-36.539 14.91-10.602 8.1914-18.777 19.109-23.648 31.59 0 3.375 0 12.75-0.9375 17.812s0 13.125-1.125 15.188c-0.54297 3.3164-1.9688 6.4219-4.125 9l-25.125 29.625 24.188-4.5c3.4453-0.75 7.0312-0.51562 10.348 0.67969 3.3164 1.1914 6.2266 3.2969 8.4023 6.0703 12.23 15.375 30.004 25.34 49.5 27.75h9.1875c11.051 1.4492 21.141 7.0352 28.238 15.629 7.0977 8.5938 10.676 19.559 10.012 30.684 0 54.938 14.438 153 117.19 191.62 23.547 9.5117 48.824 13.988 74.203 13.148 25.379-0.83594 50.305-6.9766 73.172-18.023 11.594-5.8125 24.344-8.9492 37.312-9.1875z"/>
  <path d="m869.25 517.69c-31.477 0.26562-62.523-7.2695-90.375-21.938-31.551-15.234-55.949-42.125-68.062-75-15-54.75 8.4375-80.25 11.25-83.062 3.5117-3.4922 8.2656-5.4531 13.219-5.4531s9.707 1.9609 13.219 5.4531c3.3789 3.4961 5.2695 8.168 5.2695 13.031s-1.8906 9.5352-5.2695 13.031c-1.125 1.3125-10.875 14.625-2.0625 47.062 9.25 23.25 27.02 42.094 49.688 52.688 20.836 10.301 43.555 16.246 66.766 17.469 23.211 1.2266 46.43-2.293 68.234-10.344 4.7812-1.7617 10.07-1.5 14.656 0.72266s8.0664 6.2109 9.6484 11.055c1.582 4.8438 1.1211 10.121-1.2695 14.621-2.3906 4.4961-6.5117 7.8281-11.41 9.2266-23.762 7.5898-48.555 11.449-73.5 11.438z"/>
 </g>
</svg>
