<?xml version="1.0" encoding="UTF-8"?>
<svg width="1200pt" height="1200pt" version="1.1" viewBox="0 0 1200 1200" xmlns="http://www.w3.org/2000/svg">
 <g fill="#3eb0ab" fill-rule="evenodd">
  <path d="m1098 936.48h-171.43l-48.172-49.586h32.586c4.25 0 8.5 0 12.75-1.418l187.01-62.336c19.836-7.082 29.754-28.336 24.086-48.172-7.082-19.836-28.336-31.168-48.172-24.086l-181.35 60.922h-267.77c-68.004 53.836-219.6 68.004-348.52 69.422l-198.35 56.672c-19.836 5.668-31.168 25.5-25.5 46.754 4.25 15.586 19.836 26.918 36.836 26.918 2.832 0 5.668 0 9.918-1.418l430.7-123.26h228.1l113.34 113.34c7.082 7.082 17 11.336 26.918 11.336h187.01c21.25 0 38.254-17 38.254-38.254 0-19.836-17-36.836-38.254-36.836z"/>
  <path d="m631.88 507.2c42.504-8.5 79.34-32.586 102.01-68.004 49.586-73.672 28.336-174.26-45.336-222.43-117.59-77.922-274.85 24.086-245.1 165.76 17 86.422 102.01 143.09 188.43 124.68zm2.832-246.52c21.25 0 38.254 17 38.254 38.254 0 19.836-17 36.836-38.254 36.836-21.25 0-38.254-17-38.254-36.836 0-21.25 17-38.254 38.254-38.254z"/>
  <path d="m782.05 416.53 58.086-45.336c14.168-11.336 12.75-34.004-2.832-45.336l-56.672-36.836c14.168 41.086 14.168 85.008 1.418 127.51z"/>
  <path d="m620.54 562.46c-21.25 53.836-103.43 188.43-423.61 188.43h-17c-4.25 19.836-8.5 39.668-12.75 60.922 0 4.25 1.418 8.5 2.832 9.918 1.418 1.418 2.832 2.832 8.5 2.832 171.43 8.5 374.03-2.832 432.11-59.504 41.086-42.504 65.172-97.758 65.172-157.26 0-18.418-2.832-36.836-7.082-55.254-8.5 2.832-17 5.668-25.5 7.082-8.5 1.418-15.586 2.832-22.668 2.832z"/>
  <path d="m517.12 613.46c24.086-18.418 38.254-38.254 45.336-52.422-90.672-17-161.51-89.258-172.84-181.35-120.43 11.336-354.19 144.51-323.02 270.6 25.5 97.758 368.36 32.586 450.53-36.836z"/>
 </g>
</svg>
